<?xml version="1.0" encoding="UTF-8"?>
<svg width="210px" height="155px" viewBox="0 0 210 155" version="1.1" xmlns="http://www.w3.org/2000/svg" xmlns:xlink="http://www.w3.org/1999/xlink">
    <!-- Generator: Sketch 50.2 (55047) - http://www.bohemiancoding.com/sketch -->
    <title>frog-green</title>
    <desc>Created with Sketch.</desc>
    <defs></defs>
    <g id="Page-1" stroke="none" stroke-width="1" fill="none" fill-rule="evenodd">
        <g id="frog-green" transform="translate(-13.000000, 0.000000)">
            <circle id="Oval-29" fill="#69DA6B" cx="73" cy="24" r="24"></circle>
            <circle id="Oval-29" fill="#69DA6B" cx="163" cy="24" r="24"></circle>
            <g id="frog-green-+-Rectangle-30" transform="translate(0.000000, 51.000000)" fill="#4CC24F">
                <ellipse id="frog-green" transform="translate(46.538193, 57.026578) rotate(-27.000000) translate(-46.538193, -57.026578) " cx="46.5381931" cy="57.0265777" rx="26.5" ry="50.5"></ellipse>
                <rect id="Rectangle-30" x="13" y="89" width="56" height="15" rx="7.5"></rect>
            </g>
            <g id="frog-green-+-Rectangle-30" transform="translate(189.000000, 108.500000) scale(-1, 1) translate(-189.000000, -108.500000) translate(142.000000, 51.000000)" fill="#4CC24F">
                <ellipse id="frog-green" transform="translate(46.538193, 57.026578) rotate(-27.000000) translate(-46.538193, -57.026578) " cx="46.5381931" cy="57.0265777" rx="26.5" ry="50.5"></ellipse>
                <rect id="Rectangle-30" x="13" y="89" width="56" height="15" rx="7.5"></rect>
            </g>
            <rect id="Rectangle-30" fill="#69DA6B" x="49" y="17" width="138" height="138" rx="9"></rect>
            <circle id="Oval-37" stroke="#FFFFFF" stroke-width="5" fill="#000000" cx="73" cy="24" r="12"></circle>
            <circle id="Oval-37" stroke="#FFFFFF" stroke-width="5" fill="#000000" cx="163" cy="24" r="12"></circle>
            <rect id="Rectangle-33" fill="#77F87A" x="62" y="69" width="110" height="70" rx="9"></rect>
        </g>
    </g>
</svg>