<?xml version="1.0" encoding="UTF-8"?>
<svg width="210px" height="155px" viewBox="0 0 210 155" version="1.1" xmlns="http://www.w3.org/2000/svg" xmlns:xlink="http://www.w3.org/1999/xlink">
    <!-- Generator: Sketch 50.2 (55047) - http://www.bohemiancoding.com/sketch -->
    <title>frog-yellow</title>
    <desc>Created with Sketch.</desc>
    <defs>
        <circle id="path-1" cx="24" cy="24" r="24"></circle>
        <circle id="path-3" cx="24" cy="24" r="24"></circle>
        <rect id="path-5" x="0" y="0" width="138" height="138" rx="9"></rect>
        <rect id="path-7" x="0" y="0" width="138" height="138" rx="9"></rect>
        <rect id="path-9" x="0" y="0" width="110" height="70" rx="9"></rect>
    </defs>
    <g id="Page-1" stroke="none" stroke-width="1" fill="none" fill-rule="evenodd">
        <g id="frog-yellow" transform="translate(-13.000000, -24.000000)">
            <rect id="Rectangle-51" fill-opacity="0" fill="#D8D8D8" x="13" y="0" width="210" height="210"></rect>
            <g id="Rectangle" transform="translate(49.000000, 24.000000)">
                <mask id="mask-2" fill="white">
                    <use xlink:href="#path-1"></use>
                </mask>
                <use id="Mask" fill="#FAFA41" xlink:href="#path-1"></use>
                <rect fill="#C2C22C" mask="url(#mask-2)" x="6" y="-4" width="25" height="169"></rect>
            </g>
            <g id="Rectangle" transform="translate(139.000000, 24.000000)">
                <mask id="mask-4" fill="white">
                    <use xlink:href="#path-3"></use>
                </mask>
                <use id="Mask" fill="#FAFA41" xlink:href="#path-3"></use>
                <rect fill="#C2C22C" mask="url(#mask-4)" x="16" y="-4" width="25" height="169"></rect>
            </g>
            <g id="frog-green-+-Rectangle-30" transform="translate(0.000000, 75.000000)" fill="#ECEC00">
                <ellipse id="frog-green" transform="translate(46.538193, 57.026578) rotate(-27.000000) translate(-46.538193, -57.026578) " cx="46.5381931" cy="57.0265777" rx="26.5" ry="50.5"></ellipse>
                <rect id="Rectangle-30" x="13" y="89" width="56" height="15" rx="7.5"></rect>
            </g>
            <g id="frog-green-+-Rectangle-30" transform="translate(189.000000, 132.500000) scale(-1, 1) translate(-189.000000, -132.500000) translate(142.000000, 75.000000)" fill="#ECEC00">
                <ellipse id="frog-green" transform="translate(46.538193, 57.026578) rotate(-27.000000) translate(-46.538193, -57.026578) " cx="46.5381931" cy="57.0265777" rx="26.5" ry="50.5"></ellipse>
                <rect id="Rectangle-30" x="13" y="89" width="56" height="15" rx="7.5"></rect>
            </g>
            <g id="Rectangle" transform="translate(49.000000, 41.000000)">
                <mask id="mask-6" fill="white">
                    <use xlink:href="#path-5"></use>
                </mask>
                <use id="Mask" fill="#FAFA41" xlink:href="#path-5"></use>
                <rect fill="#B6B628" mask="url(#mask-6)" x="54" y="-11" width="30" height="169"></rect>
                <rect fill="#B6B628" mask="url(#mask-6)" x="-6" y="-21" width="30" height="169"></rect>
            </g>
            <g id="Rectangle" transform="translate(49.000000, 41.000000)">
                <mask id="mask-8" fill="white">
                    <use xlink:href="#path-7"></use>
                </mask>
                <use id="Mask" fill="#FAFA41" xlink:href="#path-7"></use>
                <rect fill="#C2C22C" mask="url(#mask-8)" x="56" y="-10" width="25" height="169"></rect>
                <rect fill="#C2C22C" mask="url(#mask-8)" x="6" y="-21" width="25" height="169"></rect>
                <rect fill="#C2C22C" mask="url(#mask-8)" x="106" y="-21" width="25" height="169"></rect>
            </g>
            <circle id="Oval-37" stroke="#FFFFFF" stroke-width="5" fill="#000000" cx="73" cy="48" r="12"></circle>
            <circle id="Oval-37" stroke="#FFFFFF" stroke-width="5" fill="#000000" cx="163" cy="48" r="12"></circle>
            <g id="Rectangle-+-Rectangle-Mask" transform="translate(62.000000, 93.000000)">
                <mask id="mask-10" fill="white">
                    <use xlink:href="#path-9"></use>
                </mask>
                <use id="Mask" fill="#FFFF95" xlink:href="#path-9"></use>
                <rect id="Rectangle" fill="#EDED4B" mask="url(#mask-10)" x="43" y="-63" width="25" height="169"></rect>
                <rect id="Rectangle" fill="#EDED4B" mask="url(#mask-10)" x="93" y="-73" width="40" height="169"></rect>
                <rect id="Rectangle" fill="#EDED4B" mask="url(#mask-10)" x="-22" y="-73" width="40" height="169"></rect>
            </g>
        </g>
    </g>
</svg>