<?xml version="1.0" encoding="utf-8"?>
<!-- Generator: Adobe Illustrator 19.1.0, SVG Export Plug-In . SVG Version: 6.00 Build 0)  -->
<svg version="1.1" xmlns="http://www.w3.org/2000/svg" xmlns:xlink="http://www.w3.org/1999/xlink" x="0px" y="0px"
	 viewBox="0 0 210 210" style="enable-background:new 0 0 210 210;" xml:space="preserve">
<style type="text/css">
	.st0{fill:#29435C;}
	.st1{fill:#1F5768;}
	.st2{fill:#A59328;}
	.st3{fill:#B7A420;}
	.st4{fill:#E2C340;}
	.st5{fill:#FFE165;}
	.st6{fill:#FFFFFF;}
	.st7{fill:#291628;}
	.st8{fill:#FFF0B0;}
	.st9{fill:#BF3232;}
	.st10{fill:#DE4242;}
	.st11{fill:#ED7A7A;}
	.st12{fill:#197F19;}
	.st13{fill:#197219;}
	.st14{fill:#31A831;}
	.st15{fill:#44D344;}
	.st16{fill:#7EED7E;}
	.st17{fill:#630C0C;}
	.st18{fill:#821717;}
</style>
<g id="Capa_1">
</g>
<g id="Capa_2">
	<g>
		<path class="st14" d="M202.5,169h-17.2c5.3-5.2,10.4-11.7,14.6-19.3c13.4-24.2,13.5-49.7,0.2-57.1c-13.3-7.4-34.9,6.2-48.3,30.4
			c-10.4,18.8-12.8,38.5-7,49.8c-0.6,1.1-1,2.4-1,3.7v0c0,4.1,3.4,7.5,7.5,7.5h51.3c4.1,0,7.5-3.4,7.5-7.5v0
			C210,172.4,206.6,169,202.5,169z"/>
		<path class="st14" d="M7.5,169h17.2c-5.3-5.2-10.4-11.7-14.6-19.3C-3.3,125.5-3.4,99.9,9.9,92.5c13.3-7.4,34.9,6.2,48.3,30.4
			c10.4,18.8,12.8,38.5,7,49.8c0.6,1.1,1,2.4,1,3.7v0c0,4.1-3.4,7.5-7.5,7.5H7.5c-4.1,0-7.5-3.4-7.5-7.5v0C0,172.4,3.4,169,7.5,169z
			"/>
		<path class="st15" d="M174,49.2c0-13-10.5-23.5-23.5-23.5c-11.9,0-21.7,8.8-23.3,20.3H82.8c-1.6-11.5-11.4-20.3-23.3-20.3
			c-13,0-23.5,10.5-23.5,23.5c0,0.4,0,0.8,0,1.2c0,0,0,0,0,0v124.3c0,5.2,4.2,9.4,9.4,9.4h119.2c5.2,0,9.4-4.2,9.4-9.4V49.8
			c0,0,0,0,0,0C174,49.6,174,49.4,174,49.2z"/>
		<circle class="st6" cx="59.5" cy="49.2" r="13.5"/>
		<circle class="st7" cx="59.5" cy="49.2" r="8.5"/>
		<circle class="st6" cx="150.5" cy="49.2" r="13.5"/>
		<circle class="st7" cx="150.5" cy="49.2" r="8.5"/>
		<path class="st16" d="M125.1,169.9H84.9C65.6,169.9,50,154.3,50,135v0c0-19.3,15.6-34.9,34.9-34.9h40.2
			c19.3,0,34.9,15.6,34.9,34.9v0C160,154.3,144.4,169.9,125.1,169.9z"/>
	</g>
</g>
</svg>
