<?xml version="1.0" encoding="utf-8"?>
<!-- Generator: Adobe Illustrator 19.1.0, SVG Export Plug-In . SVG Version: 6.00 Build 0)  -->
<svg version="1.1" xmlns="http://www.w3.org/2000/svg" xmlns:xlink="http://www.w3.org/1999/xlink" x="0px" y="0px"
	 viewBox="0 0 160 160" style="enable-background:new 0 0 160 160;" xml:space="preserve">
<style type="text/css">
	.st0{fill:#29435C;}
	.st1{fill:#1F5768;}
	.st2{fill:#E2C340;}
	.st3{fill:#FFE165;}
	.st4{fill:#FFFFFF;}
	.st5{fill:#291628;}
	.st6{fill:#FFF0B0;}
	.st7{fill:#BF3232;}
	.st8{fill:#DE4242;}
	.st9{fill:#ED7A7A;}
	.st10{fill:#31A831;}
	.st11{fill:#44D344;}
	.st12{fill:#7EED7E;}
	.st13{fill:#197F19;}
	.st14{fill:#197219;}
	.st15{fill:#B7A420;}
	.st16{fill:#A59328;}
	.st17{fill:#821717;}
	.st18{fill:#630C0C;}
</style>
<g id="Capa_1">
</g>
<g id="Capa_2">
	<path class="st17" d="M80,0C35.8,0,0,35.8,0,80c0,2.7,0.1,5.3,0.4,7.9c3.5,35.6,30.3,64.3,64.9,70.7l2.1-4.4
		c0.1-0.3,0.3-0.5,0.4-0.9l0.5-1.1c0.1-0.2,0.2-0.5,0.3-0.7l0.2-0.4l0.1-0.1c0.4-0.8,0.8-1.7,1.2-2.6l1.9-4c0.2-0.3,0.3-0.6,0.5-1
		l3.4-7.4c2.3-5,6.1-5,8.5,0l3.4,7.4c0.2,0.3,0.3,0.6,0.5,1l1.9,4c0.4,0.9,0.8,1.8,1.2,2.6l0.1,0.1l0.2,0.4c0.1,0.2,0.2,0.5,0.3,0.7
		l0.5,1.1c0.1,0.3,0.3,0.6,0.4,0.9l2.1,4.4c34.6-6.5,61.4-35.2,64.9-70.7c0.3-2.6,0.4-5.2,0.4-7.9C160,35.8,124.2,0,80,0z"/>
	<path class="st18" d="M80,15.8c41.5,0,75.6,31.6,79.6,72.1c0.3-2.6,0.4-5.2,0.4-7.9c0-44.2-35.8-80-80-80S0,35.8,0,80
		c0,2.7,0.1,5.3,0.4,7.9C4.4,47.4,38.5,15.8,80,15.8z"/>
</g>
</svg>
