<?xml version="1.0" encoding="UTF-8" standalone="no"?>
<svg width="160px" height="160px" viewBox="0 0 160 160" preserveAspectRatio="none" version="1.1" xmlns="http://www.w3.org/2000/svg" xmlns:xlink="http://www.w3.org/1999/xlink" xmlns:sketch="http://www.bohemiancoding.com/sketch/ns">
    <!-- Generator: Sketch 3.4.3 (16618) - http://www.bohemiancoding.com/sketch -->
    <title>lilypad-green</title>
    <desc>Created with Sketch.</desc>
    <defs>
        <path id="path-1" d="M68.1410843,159.12709 C72.0105928,159.702089 75.9705059,126.101562 80,126.101562 C85.4632556,126.101562 90.798605,159.452368 95.9541484,158.409004 C132.492835,151.014406 160,118.719524 160,80 C160,35.81722 124.18278,0 80,0 C35.81722,0 0,35.81722 0,80 C0,120.153286 29.5820305,153.397318 68.1410843,159.12709 Z"></path>
    </defs>
    <g id="Page-1" stroke="none" stroke-width="1" fill="none" fill-rule="evenodd" sketch:type="MSPage">
        <g id="lilypad-green" sketch:type="MSLayerGroup">
            <mask id="mask-2" sketch:name="Mask" fill="white">
                <use xlink:href="#path-1"></use>
            </mask>
            <use id="Mask" fill="#3FA142" sketch:type="MSShapeGroup" xlink:href="#path-1"></use>
            <path d="M68.1410843,174.12709 C72.0105928,174.702089 75.9705059,141.101562 80,141.101562 C85.4632556,141.101562 90.798605,174.452368 95.9541484,173.409004 C132.492835,166.014406 160,133.719524 160,95 C160,50.81722 124.18278,15 80,15 C35.81722,15 0,50.81722 0,95 C0,135.153286 29.5820305,168.397318 68.1410843,174.12709 Z" fill="#288A2B" sketch:type="MSShapeGroup" mask="url(#mask-2)"></path>
            <polygon class="colorblind-assist" points="117,80 93,121 141,121" fill="#333333" />
        </g>
    </g>
</svg>
